<svg xmlns="http://www.w3.org/2000/svg" width="374.9155" height="175.0413" viewBox="0 0 374.9155 175.0413">
  <g>
    <g>
      <path d="M275.2079,87.4364a2.9419,2.9419,0,0,0-.49-1.9576,2.5427,2.5427,0,0,0-1.9576-.9789,3.7385,3.7385,0,0,1-2.4471-.9788c-1.9576-1.4682-4.4047-1.9576-7.3412-1.9576h-.4894l.4894-.4894a13.88,13.88,0,0,0,1.9577-6.3624h0a2.4471,2.4471,0,1,0-4.8941,0h0a8.3661,8.3661,0,0,1-3.4259,6.3624h0a12.48,12.48,0,0,0-11.7459,0h0a8.3658,8.3658,0,0,1-3.4259-6.3624h0a2.4471,2.4471,0,0,0-4.8942,0h0a9.8362,9.8362,0,0,0,1.9577,6.3624l.4894.4894h-.4894a9.3622,9.3622,0,0,0-7.3412,1.9576c-.9788.4894-1.4682.9788-2.4471.9788a3.71,3.71,0,0,0-1.9576.9789,2.9424,2.9424,0,0,0-.4894,1.9576A11.6668,11.6668,0,0,0,229.203,92.82l.4895.4894h-.4895a80.0324,80.0324,0,0,1-10.767.9788H166.5582a20.8889,20.8889,0,0,0-21.0447,21.0447v20.066a2.4471,2.4471,0,0,0,4.8941,0v-20.066c-1.9576-7.8306,3.4259-14.6823,10.7671-16.1506h.9788l-.4894.4894c-.4894.4895-.9788.4895-1.4682.9789a24.187,24.187,0,0,0-6.8518,14.6823v6.8518a24.6138,24.6138,0,0,0,3.9153,13.2142c2.447,3.4259,5.3835,6.8518,9.2988,8.8094h0l2.4471,8.32v18.1083a4.3863,4.3863,0,0,0,4.4047,4.4047h20.0659a6.0416,6.0416,0,0,0,3.9153-1.9576,3.6705,3.6705,0,0,0,0-4.4048l-1.9576-3.4258V149.5918h21.5341a15.2325,15.2325,0,0,0,1.9577,2.9365h0v17.6189a4.3864,4.3864,0,0,0,4.4047,4.4047h18.1083a6.0415,6.0415,0,0,0,3.9153-1.9577,3.6707,3.6707,0,0,0,0-4.4047l-1.4683-2.9364V152.5283h0a20.5285,20.5285,0,0,0,4.4048-6.8518h0a26.4961,26.4961,0,0,0,12.7247-22.5129h0a9.6683,9.6683,0,0,0,5.8729-8.8095v-.9788a11.6939,11.6939,0,0,0-2.447-6.8518h0V95.7564h.9788a14.479,14.479,0,0,0,4.8941-.9788A13.1118,13.1118,0,0,0,275.2079,87.4364ZM240.46,94.7776a9.7883,9.7883,0,0,1,19.5765,0v8.8094h-.4894c-.4895,0-1.4683-.4894-1.9577-.4894H243.396a2.9424,2.9424,0,0,0-1.9576.4894h-.4894V94.7776Zm-9.2989-6.3624c.4894-.4894,1.4682-.4894,1.9577-.9788a4.6733,4.6733,0,0,1,4.8941-.9788h.4894v.4894c-.4894.9788-1.4682,2.4471-1.4682,3.9153h-.9789a4.412,4.412,0,0,1-2.447-.4894,3.4452,3.4452,0,0,1-2.4471-1.9577Zm-28.3859,12.2354a2.1052,2.1052,0,0,1,1.9576-1.9577h11.2565a7.1109,7.1109,0,0,1,6.8518,7.3412,7.527,7.527,0,0,1-7.3412,7.3412H195.4336a2.9365,2.9365,0,0,1,0-5.873h0C199.8383,107.5023,202.7748,104.5659,202.7748,100.6506Zm-42.0895,31.8118h0a20.5574,20.5574,0,0,1-2.9365-10.2777v-3.9153h20.5553a2.9365,2.9365,0,0,1,0,5.873h0a6.6906,6.6906,0,0,0-6.8517,6.8518,2.1053,2.1053,0,0,1-1.9577,1.9576h-8.8094Zm25.9388,37.6848h0c0-.9788-.4894-1.4683-.4894-1.9577l-1.4682-2.9364V152.5283h0c.9788-.9788,1.4682-1.9576,2.4471-2.9365H190.54v16.1507c0,.4894,0,.9788.4894.9788l1.4682,3.4259Zm47.9625,0h0c0-.9788-.4894-1.4683-.4894-2.4471l-.9788-1.4682v-14.193h0c.9788-.9788,1.4682-1.9576,2.447-2.9365h0c1.4683,0,2.9365-.4894,4.4047-.4894h.9789l-.9789.9788-.4894.4895a1.7979,1.7979,0,0,0-.4894,1.4682v14.193c0,.4894,0,.9788.4894.9788l1.4683,3.4259ZM256.61,124.1424a21.9229,21.9229,0,0,1-17.6189,20.5553h-.4894v-.4894A31.6432,31.6432,0,0,0,240.46,134.42v-2.9364a2.4471,2.4471,0,1,0-4.8941,0V134.42a22.7339,22.7339,0,0,1-2.9365,11.2565l-.4894.4894a21.2777,21.2777,0,0,1-2.9365,3.4259,1.7982,1.7982,0,0,0-.4894,1.4683v15.6612a1.7979,1.7979,0,0,0,.4894,1.4682l.9789,1.9577H223.33V152.0389a4.93,4.93,0,0,0-.4894-1.4682,9.3043,9.3043,0,0,1-2.4471-6.3624v-4.8941a2.4471,2.4471,0,1,0-4.8941,0v5.8729H189.5606v-.4894a25.5581,25.5581,0,0,0,1.9577-10.2777v-2.9364a2.3119,2.3119,0,0,0-2.4471-2.4471c-1.4682,0-1.9576.9788-1.9576,2.4471V134.42a21.4718,21.4718,0,0,1-6.3624,15.1718,1.7982,1.7982,0,0,0-.4894,1.4683V165.253c0,.49,0,.9789.4894.9789l1.4682,3.4259H173.41V151.06l-2.9365-9.7883c0-.4894-.4894-.9788-.9788-1.4682-1.4682-.9788-2.9365-1.4682-4.4047-2.9365l-.4894-.4894h4.8941a6.6907,6.6907,0,0,0,6.8518-6.8518,2.1052,2.1052,0,0,1,1.9576-1.9576h0a6.5461,6.5461,0,0,0,7.3412-6.8518,7.527,7.527,0,0,0-7.3412-7.3412H158.2382v-.4894a24.38,24.38,0,0,1,4.8941-9.2989c3.9153-2.9364,8.32-4.8941,13.2142-4.8941H198.37v.4894c0,.4894-.49.9789-.49,1.9577a2.1052,2.1052,0,0,1-1.9576,1.9576h0a7.3412,7.3412,0,0,0,0,14.6824h20.0659a11.9093,11.9093,0,0,0,11.7459-11.7459,13.1876,13.1876,0,0,0-2.447-7.3412l-.4895-.4894h.4895a57.7354,57.7354,0,0,0,9.7882-1.9576h.4894v10.2776h0a10.61,10.61,0,0,0-2.447,6.8518v.9788a9.817,9.817,0,0,0,9.7882,9.7883Zm5.8729-10.2777a4.9042,4.9042,0,0,1-4.8941,4.8941H243.396a4.9043,4.9043,0,0,1-4.8941-4.8941v-.9788a4.9043,4.9043,0,0,1,4.8941-4.8941h14.193a4.9042,4.9042,0,0,1,4.8941,4.8941Zm7.3412-24.96c-.4894.4894-.9788,1.4682-1.4682,1.4682a8.6115,8.6115,0,0,1-2.9365.4894h-.9788c-.4894-1.4682-.9789-2.4471-1.4683-3.9153v-.4894h.4894c.4895-.4894,2.4471-.4894,3.9154.9788.9788,0,1.4682.4894,2.447,1.4683Z" fill="#2d3833"/>
      <path d="M246.8219,93.3094a2.4471,2.4471,0,1,0-4.8941,0,2.4471,2.4471,0,0,0,4.8941,0Z" fill="#2d3833"/>
      <path d="M255.1419,90.8623a2.4471,2.4471,0,0,0,0,4.8941h0a2.4471,2.4471,0,1,0,0-4.8941Z" fill="#2d3833"/>
      <path d="M247.3113,113.8647a2.3119,2.3119,0,0,0-2.447-2.4471h0a2.4471,2.4471,0,1,0,0,4.8942C246.3325,115.8224,247.3113,114.8435,247.3113,113.8647Z" fill="#2d3833"/>
      <path d="M258.0784,113.8647a2.312,2.312,0,0,0-2.4471-2.4471h0a2.4471,2.4471,0,0,0,0,4.8942C257.1,115.8224,258.0784,114.8435,258.0784,113.8647Z" fill="#2d3833"/>
    </g>
    <g>
      <path d="M103.1379,41.9822a2.34,2.34,0,0,0-.3892-1.5568,2.022,2.022,0,0,0-1.5568-.7784,2.9729,2.9729,0,0,1-1.946-.7784,9.38,9.38,0,0,0-5.838-1.5568h-.3892l.3892-.3892a11.0381,11.0381,0,0,0,1.5568-5.06h0a1.946,1.946,0,0,0-3.892,0h0a6.6529,6.6529,0,0,1-2.7244,5.06h0a9.9246,9.9246,0,0,0-9.3408,0h0a6.6529,6.6529,0,0,1-2.7244-5.06h0a1.946,1.946,0,1,0-3.892,0h0a7.8223,7.8223,0,0,0,1.5568,5.06l.3892.3892h-.3892a7.4451,7.4451,0,0,0-5.838,1.5568c-.7784.3892-1.1676.7784-1.946.7784a2.9506,2.9506,0,0,0-1.5568.7784,2.34,2.34,0,0,0-.3892,1.5568,9.2776,9.2776,0,0,0,2.3352,4.2812l.3892.3891h-.3892a63.6415,63.6415,0,0,1-8.5623.7784H16.7356A16.6117,16.6117,0,0,0,0,64.1665V80.1237A1.8385,1.8385,0,0,0,1.946,82.07a1.8385,1.8385,0,0,0,1.946-1.946V64.1665c-1.5568-6.2272,2.7244-11.676,8.5624-12.8436h.7784l-.3892.3892c-.3892.3892-.7784.3892-1.1676.7784a19.2345,19.2345,0,0,0-5.4488,11.676v5.4488A19.5741,19.5741,0,0,0,9.3408,80.1237c1.946,2.7244,4.2812,5.4488,7.3948,7.0056h0l1.946,6.6164v14.4a3.4882,3.4882,0,0,0,3.5028,3.5028H38.1416a4.8047,4.8047,0,0,0,3.1136-1.5568,2.919,2.919,0,0,0,0-3.5028l-1.5568-2.7244V91.4105H56.8232A12.1118,12.1118,0,0,0,58.38,93.7457h0v14.0112a3.4882,3.4882,0,0,0,3.5028,3.5028h14.4a4.8044,4.8044,0,0,0,3.1135-1.5568,2.919,2.919,0,0,0,0-3.5028l-1.1675-2.3352V93.7457h0a16.3249,16.3249,0,0,0,3.5027-5.4488h0A21.0708,21.0708,0,0,0,91.8511,70.3937h0a7.6886,7.6886,0,0,0,4.67-7.0056V62.61a9.2993,9.2993,0,0,0-1.946-5.4488h0V48.5985h.7784a11.5145,11.5145,0,0,0,3.892-.7784A10.4264,10.4264,0,0,0,103.1379,41.9822ZM75.5048,47.82a7.784,7.784,0,0,1,15.5679,0v7.0056h-.3892c-.3892,0-1.1676-.3892-1.5568-.3892H77.84a2.34,2.34,0,0,0-1.5568.3892H75.894V47.82ZM68.11,42.7606c.3892-.3892,1.1676-.3892,1.5568-.7784a3.7164,3.7164,0,0,1,3.892-.7784h.3892v.3892A7.4311,7.4311,0,0,0,72.78,44.7066H72.002a3.5087,3.5087,0,0,1-1.946-.3892,2.74,2.74,0,0,1-1.946-1.5568Zm-22.5736,9.73a1.6742,1.6742,0,0,1,1.5568-1.5568h8.9516a5.6549,5.6549,0,0,1,5.4488,5.838,5.9857,5.9857,0,0,1-5.838,5.838H39.6984a2.3352,2.3352,0,0,1,0-4.67h0C43.2012,57.9393,45.5364,55.6041,45.5364,52.4905ZM12.0652,77.7885h0A16.3483,16.3483,0,0,1,9.73,69.6153V66.5017H26.0764a2.3352,2.3352,0,0,1,0,4.67h0a5.3206,5.3206,0,0,0-5.4488,5.4488,1.6742,1.6742,0,0,1-1.5568,1.5568H12.0652Zm20.6276,29.9684h0c0-.7784-.3892-1.1676-.3892-1.5568l-1.1676-2.3352V93.7457h0c.7784-.7784,1.1676-1.5568,1.946-2.3352h2.7244v12.8436c0,.3892,0,.7784.3892.7784l1.1676,2.7244Zm38.1416,0h0c0-.7784-.3892-1.1676-.3892-1.946l-.7784-1.1676V93.3565h0c.7784-.7784,1.1676-1.5568,1.946-2.3352h0c1.1675,0,2.3352-.3892,3.5027-.3892h.7785l-.7784.7784-.3892.3892a1.43,1.43,0,0,0-.3892,1.1676v11.2868c0,.3892,0,.7784.3892.7784l1.1676,2.7244ZM88.3483,71.1721A17.434,17.434,0,0,1,74.3372,87.5185H73.948v-.3892a25.163,25.163,0,0,0,1.5567-7.784V77.01a1.946,1.946,0,1,0-3.8919,0v2.3352a18.08,18.08,0,0,1-2.3352,8.9516l-.3892.3892a16.9277,16.9277,0,0,1-2.3352,2.7244,1.43,1.43,0,0,0-.3892,1.1676v12.4544a1.43,1.43,0,0,0,.3892,1.1676l.7784,1.5568H61.8828v-14.4a3.92,3.92,0,0,0-.3892-1.1676,7.3988,7.3988,0,0,1-1.946-5.06v-3.892a1.946,1.946,0,0,0-3.892,0v4.67H35.028v-.3892a20.3254,20.3254,0,0,0,1.5568-8.1732V77.01a1.8385,1.8385,0,0,0-1.946-1.946c-1.1676,0-1.5568.7784-1.5568,1.946v2.3352a17.0752,17.0752,0,0,1-5.06,12.0652,1.43,1.43,0,0,0-.3892,1.1676v11.2868c0,.3892,0,.7784.3892.7784l1.1676,2.7244H22.1844v-14.79l-2.3352-7.784c0-.3892-.3892-.7784-.7784-1.1676a18.2766,18.2766,0,0,1-3.5028-2.3352l-.3892-.3892h3.892A5.3206,5.3206,0,0,0,24.52,75.4533a1.6742,1.6742,0,0,1,1.5568-1.5568h0a5.2057,5.2057,0,0,0,5.838-5.4488,5.9857,5.9857,0,0,0-5.838-5.838H10.1192v-.3892a19.3876,19.3876,0,0,1,3.892-7.3948A17.475,17.475,0,0,1,24.52,50.9337h17.514v.3892c0,.3892-.3892.7784-.3892,1.5568a1.6742,1.6742,0,0,1-1.5568,1.5568h0a5.838,5.838,0,0,0,0,11.676H56.0448a9.4708,9.4708,0,0,0,9.3408-9.3408,10.4871,10.4871,0,0,0-1.946-5.838l-.3892-.3892H63.44a45.9127,45.9127,0,0,0,7.784-1.5568h.3892v8.1732h0a8.4369,8.4369,0,0,0-1.946,5.4488v.7784a7.8069,7.8069,0,0,0,7.784,7.784Zm4.67-8.1732a3.9,3.9,0,0,1-3.892,3.892H77.84a3.9,3.9,0,0,1-3.892-3.892v-.7784a3.9,3.9,0,0,1,3.892-3.892H89.1267a3.9,3.9,0,0,1,3.892,3.892ZM98.8567,43.15c-.3892.3892-.7784,1.1676-1.1676,1.1676a6.8477,6.8477,0,0,1-2.3352.3892h-.7784c-.3892-1.1676-.7784-1.946-1.1676-3.1136v-.3892h.3892c.3892-.3892,1.946-.3892,3.1136.7784.7784,0,1.1676.3892,1.946,1.1676Z" fill="#2d3833"/>
      <path d="M80.5644,46.6525a1.946,1.946,0,0,0-3.892,0,1.946,1.946,0,0,0,3.892,0Z" fill="#2d3833"/>
      <path d="M87.1807,44.7066a1.946,1.946,0,1,0,0,3.8919h0a1.946,1.946,0,1,0,0-3.8919Z" fill="#2d3833"/>
      <path d="M80.9536,62.9989a1.8386,1.8386,0,0,0-1.946-1.946h0a1.946,1.946,0,1,0,0,3.892C80.1751,64.5557,80.9536,63.7773,80.9536,62.9989Z" fill="#2d3833"/>
      <path d="M89.5159,62.9989a1.8385,1.8385,0,0,0-1.946-1.946h0a1.946,1.946,0,1,0,0,3.892C88.7375,64.5557,89.5159,63.7773,89.5159,62.9989Z" fill="#2d3833"/>
    </g>
    <g>
      <path d="M302.26,13.1065a8.43,8.43,0,0,0,2.8492.57h.57v6.2683h0a6.8085,6.8085,0,0,0-1.4246,3.989v.57a5.6284,5.6284,0,0,0,3.4191,5.1286h0a15.4253,15.4253,0,0,0,7.408,13.1065h0a11.9524,11.9524,0,0,0,2.5643,3.989h0v7.408l-.8547,1.7095a2.1368,2.1368,0,0,0,0,2.5643,3.517,3.517,0,0,0,2.2793,1.14h10.5422a2.5537,2.5537,0,0,0,2.5643-2.5643V46.7275h0a8.8681,8.8681,0,0,0,1.14-1.71h12.5367v9.1176l-1.14,1.9944a2.1368,2.1368,0,0,0,0,2.5643,3.517,3.517,0,0,0,2.2793,1.14h11.6819a2.5537,2.5537,0,0,0,2.5643-2.5643V46.7275l1.4246-4.8438h0a15.5649,15.5649,0,0,0,5.4136-5.1286,14.33,14.33,0,0,0,2.2794-7.6929V25.0733a14.0812,14.0812,0,0,0-3.989-8.5477c-.2849-.285-.57-.285-.8547-.57l-.2849-.2849h.57a7.72,7.72,0,0,1,6.2683,9.4025V36.7551a1.4247,1.4247,0,0,0,2.8493,0V25.0733a12.161,12.161,0,0,0-12.2517-12.2517H332.4619a46.5966,46.5966,0,0,1-6.2684-.57h-.2849l.2849-.2849a6.7918,6.7918,0,0,0,1.71-3.1342,1.7133,1.7133,0,0,0-.2849-1.14,2.16,2.16,0,0,0-1.14-.57c-.57,0-.8548-.2849-1.4246-.57a5.4509,5.4509,0,0,0-4.2739-1.14h-.2849l.2849-.2849a5.7264,5.7264,0,0,0,1.14-3.704h0a1.4246,1.4246,0,0,0-2.8492,0h0a4.87,4.87,0,0,1-1.9945,3.704h0a7.2662,7.2662,0,0,0-6.8382,0h0a4.87,4.87,0,0,1-1.9944-3.704h0a1.4247,1.4247,0,0,0-2.8493,0h0a8.0813,8.0813,0,0,0,1.14,3.704l.2849.2849h-.2849a6.8672,6.8672,0,0,0-4.2738,1.14,2.1763,2.1763,0,0,1-1.4247.57,1.48,1.48,0,0,0-1.14.57,1.7128,1.7128,0,0,0-.285,1.14A7.6333,7.6333,0,0,0,302.26,13.1065Zm17.0954,0v5.1286h-.285a1.713,1.713,0,0,0-1.14-.2849H309.668c-.285,0-.8548.2849-1.14.2849h-.2849V13.1065a5.6985,5.6985,0,1,1,11.3969,0Zm5.6984-3.704h0a2.006,2.006,0,0,1-1.4246,1.14,2.5687,2.5687,0,0,1-1.4246.2849h-.57a5.44,5.44,0,0,0-.8548-2.2794V8.2628h.2849a2.7208,2.7208,0,0,1,2.8492.57c.285.285.8548.285,1.14.57Zm20.7995,11.112h0a1.8385,1.8385,0,0,1,1.7095,1.7095,1.8385,1.8385,0,0,1-1.7095,1.71H334.1714a4.3821,4.3821,0,0,1-4.2739-4.2739,4.14,4.14,0,0,1,3.989-4.2738H340.44a1.2255,1.2255,0,0,1,1.14,1.14A3.9717,3.9717,0,0,0,345.8533,20.5145Zm20.23,14.816h-5.1286a1.2255,1.2255,0,0,1-1.14-1.14,3.8951,3.8951,0,0,0-3.9889-3.9889h0a1.71,1.71,0,1,1,0-3.4191h11.9668v2.2794a11.9682,11.9682,0,0,1-1.71,5.9834h0Zm-18.52,21.6542.8548-1.9945c.2849,0,.2849-.2849.2849-.57V45.0179h1.9945c.57.57.8547,1.14,1.4246,1.71h0v7.408l-.8548,1.7095c0,.2849-.2849.57-.2849,1.14h-3.4191Zm-28.2074,0L320.21,54.99c.285,0,.285-.2849.285-.57V46.1576a1.0467,1.0467,0,0,0-.285-.8548l-.2849-.2849-.57-.57h.57c.8548,0,1.71.2849,2.5643.2849h0c.57.57.8548,1.14,1.4246,1.71h0v8.2628l-.57.8548c0,.57-.2849.8547-.2849,1.4246h-3.704Zm-9.1176-26.7828h7.9779a5.7152,5.7152,0,0,0,5.6984-5.6985v-.57a6.1764,6.1764,0,0,0-1.4246-3.989h0V13.9613h.2849a33.6168,33.6168,0,0,0,5.6985,1.14h.2849l-.2849.285a7.6778,7.6778,0,0,0-1.4246,4.2738,6.9334,6.9334,0,0,0,6.8382,6.8382h11.6818a4.2739,4.2739,0,1,0,0-8.5477h0a1.2257,1.2257,0,0,1-1.14-1.14c0-.57-.2849-.8548-.2849-1.14v-.2849h12.8216a12.7933,12.7933,0,0,1,7.6929,2.8492,14.1927,14.1927,0,0,1,2.8492,5.4135v.285H355.8256a4.382,4.382,0,0,0-4.2739,4.2738,3.811,3.811,0,0,0,4.2739,3.989h0a1.2256,1.2256,0,0,1,1.14,1.14,3.8951,3.8951,0,0,0,3.9889,3.989h2.8492l-.2849.2849a13.3759,13.3759,0,0,1-2.5643,1.7095c-.2849.285-.57.57-.57.8548l-1.71,5.6985V56.7h-5.1286l.8548-1.9945c.2849,0,.2849-.2849.2849-.57V45.8727a1.0468,1.0468,0,0,0-.2849-.8548,12.5,12.5,0,0,1-3.704-8.8326v-1.71c0-.8547-.285-1.4246-1.14-1.4246a1.346,1.346,0,0,0-1.4247,1.4246v1.71a14.8813,14.8813,0,0,0,1.14,5.9834v.2849H334.1714V39.0345a1.4246,1.4246,0,0,0-2.8492,0v2.8492a5.4166,5.4166,0,0,1-1.4247,3.7041,2.87,2.87,0,0,0-.2849.8547V56.9847h-3.9889l.57-1.14a1.0465,1.0465,0,0,0,.285-.8548V45.8727a1.0466,1.0466,0,0,0-.285-.8548,12.3893,12.3893,0,0,1-1.7095-1.9945l-.2849-.2849a13.2352,13.2352,0,0,1-1.71-6.5532v-1.71a1.4246,1.4246,0,1,0-2.8492,0v1.71a18.4194,18.4194,0,0,0,1.14,5.6984v.285h-.2849a12.763,12.763,0,0,1-10.2573-11.9668Zm-3.4191-6.5533a2.8552,2.8552,0,0,1,2.8493-2.8492h8.2627a2.8552,2.8552,0,0,1,2.8493,2.8492v.57a2.8552,2.8552,0,0,1-2.8493,2.8492H309.668a2.8552,2.8552,0,0,1-2.8493-2.8492ZM302.5449,9.6874h0c.57-.57.8548-.8548,1.4246-.8548a1.9749,1.9749,0,0,1,2.2794-.57h.2849v.2849c-.2849.8548-.57,1.4246-.8548,2.2794h-.57a5.0139,5.0139,0,0,1-1.71-.2849c-.2849,0-.57-.57-.8547-.8548Z" fill="#2d3833"/>
      <path d="M317.3609,13.6763a1.5262,1.5262,0,0,0,1.4246-1.4246,1.4246,1.4246,0,0,0-2.8492,0A1.5262,1.5262,0,0,0,317.3609,13.6763Z" fill="#2d3833"/>
      <path d="M309.668,12.2517a1.3459,1.3459,0,0,0,1.4246,1.4246h0a1.3459,1.3459,0,0,0,1.4246-1.4246,1.4246,1.4246,0,1,0-2.8492,0Z" fill="#2d3833"/>
      <path d="M317.076,25.6431a1.4246,1.4246,0,0,0,0-2.8492h0a1.3459,1.3459,0,0,0-1.4246,1.4246C315.6514,24.7883,316.2212,25.3582,317.076,25.6431Z" fill="#2d3833"/>
      <path d="M310.8077,25.6431a1.4246,1.4246,0,0,0,0-2.8492h0a1.346,1.346,0,0,0-1.4247,1.4246C309.383,24.7883,309.9529,25.3582,310.8077,25.6431Z" fill="#2d3833"/>
    </g>
  </g>
</svg>
