<svg xmlns="http://www.w3.org/2000/svg" width="125.4395" height="101.4408" viewBox="0 0 125.4395 101.4408">
  <g>
    <path d="M122.8338,98.8351a61.4169,61.4169,0,0,0-120.2281,0Z" fill="none" stroke="#fff" stroke-linecap="round" stroke-linejoin="round" stroke-width="5.2114"/>
    <path d="M74.1849,51.0722A61,61,0,0,0,25.51,98.8351h97.3238A60.948,60.948,0,0,0,74.1849,51.0722Z" fill="none" stroke="#fff" stroke-linecap="round" stroke-linejoin="round" stroke-width="5.2114"/>
    <path d="M89.4545,56.1012A60.4531,60.4531,0,0,0,56.0751,98.8351h66.7587A60.4532,60.4532,0,0,0,89.4545,56.1012Z" fill="none" stroke="#fff" stroke-linecap="round" stroke-linejoin="round" stroke-width="5.2114"/>
    <path d="M104.724,66.55A59.1759,59.1759,0,0,0,86.64,98.8351h36.1935A59.2026,59.2026,0,0,0,104.724,66.55Z" fill="none" stroke="#fff" stroke-linecap="round" stroke-linejoin="round" stroke-width="5.2114"/>
    <path d="M62.72,49.9778a62.224,62.224,0,0,1,14.8787,1.85,19.7253,19.7253,0,1,0-29.7573,0A62.2231,62.2231,0,0,1,62.72,49.9778Z" fill="none" stroke="#fff" stroke-linecap="round" stroke-linejoin="round" stroke-width="5.2114"/>
    <line x1="61.5993" y1="7.6348" x2="61.5993" y2="5.029" fill="none" stroke="#fff" stroke-linecap="round" stroke-linejoin="round" stroke-width="5.2114"/>
    <line x1="49.0658" y1="9.7715" x2="45.9389" y2="2.6057" fill="none" stroke="#fff" stroke-linecap="round" stroke-linejoin="round" stroke-width="5.2114"/>
    <line x1="38.5908" y1="16.9111" x2="36.1935" y2="14.6702" fill="none" stroke="#fff" stroke-linecap="round" stroke-linejoin="round" stroke-width="5.2114"/>
    <line x1="31.399" y1="27.3601" x2="24.0508" y2="24.7283" fill="none" stroke="#fff" stroke-linecap="round" stroke-linejoin="round" stroke-width="5.2114"/>
    <line x1="29.2101" y1="39.8936" x2="25.3016" y2="40.1542" fill="none" stroke="#fff" stroke-linecap="round" stroke-linejoin="round" stroke-width="5.2114"/>
    <line x1="74.1589" y1="9.7715" x2="77.2597" y2="2.6057" fill="none" stroke="#fff" stroke-linecap="round" stroke-linejoin="round" stroke-width="5.2114"/>
    <line x1="84.6078" y1="16.9111" x2="87.0051" y2="14.6702" fill="none" stroke="#fff" stroke-linecap="round" stroke-linejoin="round" stroke-width="5.2114"/>
    <line x1="91.7996" y1="27.3601" x2="99.1738" y2="24.7283" fill="none" stroke="#fff" stroke-linecap="round" stroke-linejoin="round" stroke-width="5.2114"/>
    <line x1="93.9884" y1="39.8936" x2="97.9231" y2="40.1542" fill="none" stroke="#fff" stroke-linecap="round" stroke-linejoin="round" stroke-width="5.2114"/>
  </g>
</svg>
